<?xml version="1.0" encoding="UTF-8" standalone="no"?>
<svg
   xmlns:dc="http://purl.org/dc/elements/1.1/"
   xmlns:cc="http://creativecommons.org/ns#"
   xmlns:rdf="http://www.w3.org/1999/02/22-rdf-syntax-ns#"
   xmlns:svg="http://www.w3.org/2000/svg"
   xmlns="http://www.w3.org/2000/svg"
   xmlns:sodipodi="http://sodipodi.sourceforge.net/DTD/sodipodi-0.dtd"
   xmlns:inkscape="http://www.inkscape.org/namespaces/inkscape"
   width="64"
   height="1536"
   viewBox="0 0 16.933333 406.39999"
   version="1.1"
   id="svg934"
   inkscape:version="1.0.1 (3bc2e813f5, 2020-09-07)"
   sodipodi:docname="fbf_ball_bounce.svg">
  <defs
     id="defs928" />
  <sodipodi:namedview
     id="base"
     pagecolor="#ffffff"
     bordercolor="#666666"
     borderopacity="1.0"
     inkscape:pageopacity="0.0"
     inkscape:pageshadow="2"
     inkscape:zoom="2.8"
     inkscape:cx="28.989306"
     inkscape:cy="734.96545"
     inkscape:document-units="mm"
     inkscape:current-layer="layer1"
     inkscape:document-rotation="0"
     showgrid="true"
     units="px"
     width="64px"
     inkscape:window-width="1920"
     inkscape:window-height="1017"
     inkscape:window-x="-8"
     inkscape:window-y="-8"
     inkscape:window-maximized="1">
    <inkscape:grid
       type="xygrid"
       id="grid1497"
       enabled="true"
       visible="true"
       color="#ff2dff"
       opacity="0.09019608"
       empcolor="#3f3f73"
       empopacity="0.09019608"
       spacingy="4.2333332"
       spacingx="4.2333332"
       originx="-1.3229166" />
    <inkscape:grid
       type="xygrid"
       id="grid1499"
       spacingy="16.933333"
       originx="0"
       dotted="false"
       snapvisiblegridlinesonly="true"
       empspacing="1"
       originy="16.933333"
       spacingx="529.16664" />
  </sodipodi:namedview>
  <metadata
     id="metadata931">
    <rdf:RDF>
      <cc:Work
         rdf:about="">
        <dc:format>image/svg+xml</dc:format>
        <dc:type
           rdf:resource="http://purl.org/dc/dcmitype/StillImage" />
        <dc:title></dc:title>
      </cc:Work>
    </rdf:RDF>
  </metadata>
  <g
     inkscape:label="Layer 1"
     inkscape:groupmode="layer"
     id="layer1">
    <circle
       style="fill:#000000;fill-opacity:1;stroke-width:0.2;font-variation-settings:normal;opacity:1;vector-effect:none;stroke-linecap:butt;stroke-linejoin:miter;stroke-miterlimit:4;stroke-dasharray:none;stroke-dashoffset:0;stroke-opacity:1;stop-color:#000000;stop-opacity:1"
       id="path1501"
       cx="8.4666662"
       cy="4.8947916"
       r="2.5135417" />
    <circle
       style="font-variation-settings:normal;opacity:1;vector-effect:none;fill:#000000;fill-opacity:1;stroke-width:0.2;stroke-linecap:butt;stroke-linejoin:miter;stroke-miterlimit:4;stroke-dasharray:none;stroke-dashoffset:0;stroke-opacity:1;stop-color:#000000;stop-opacity:1"
       id="path1501-0"
       cx="8.4666662"
       cy="394.89062"
       r="2.5135417" />
    <circle
       style="font-variation-settings:normal;opacity:1;vector-effect:none;fill:#000000;fill-opacity:1;stroke-width:0.2;stroke-linecap:butt;stroke-linejoin:miter;stroke-miterlimit:4;stroke-dasharray:none;stroke-dashoffset:0;stroke-opacity:1;stop-color:#000000;stop-opacity:1"
       id="path1501-9"
       cx="8.4666662"
       cy="217.16621"
       r="2.5135417" />
    <circle
       style="font-variation-settings:normal;opacity:1;vector-effect:none;fill:#000000;fill-opacity:1;stroke-width:0.2;stroke-linecap:butt;stroke-linejoin:miter;stroke-miterlimit:4;stroke-dasharray:none;stroke-dashoffset:0;stroke-opacity:1;stop-color:#000000;stop-opacity:1"
       id="path1501-5"
       cx="8.4666662"
       cy="21.828125"
       r="2.5135417" />
    <circle
       style="font-variation-settings:normal;opacity:1;vector-effect:none;fill:#000000;fill-opacity:1;stroke-width:0.2;stroke-linecap:butt;stroke-linejoin:miter;stroke-miterlimit:4;stroke-dasharray:none;stroke-dashoffset:0;stroke-opacity:1;stop-color:#000000;stop-opacity:1"
       id="path1501-5-0"
       cx="8.4666662"
       cy="39.281178"
       r="2.5135417" />
    <circle
       style="font-variation-settings:normal;opacity:1;vector-effect:none;fill:#000000;fill-opacity:1;stroke-width:0.2;stroke-linecap:butt;stroke-linejoin:miter;stroke-miterlimit:4;stroke-dasharray:none;stroke-dashoffset:0;stroke-opacity:1;stop-color:#000000;stop-opacity:1"
       id="path1501-5-0-5"
       cx="8.4666662"
       cy="56.214512"
       r="2.5135417" />
    <circle
       style="font-variation-settings:normal;opacity:1;vector-effect:none;fill:#000000;fill-opacity:1;stroke-width:0.2;stroke-linecap:butt;stroke-linejoin:miter;stroke-miterlimit:4;stroke-dasharray:none;stroke-dashoffset:0;stroke-opacity:1;stop-color:#000000;stop-opacity:1"
       id="path1501-5-0-5-6"
       cx="8.4666662"
       cy="73.667557"
       r="2.5135417" />
    <circle
       style="font-variation-settings:normal;opacity:1;vector-effect:none;fill:#000000;fill-opacity:1;stroke-width:0.2;stroke-linecap:butt;stroke-linejoin:miter;stroke-miterlimit:4;stroke-dasharray:none;stroke-dashoffset:0;stroke-opacity:1;stop-color:#000000;stop-opacity:1"
       id="path1501-5-0-5-6-0"
       cx="8.4666662"
       cy="92.053268"
       r="2.5135417" />
    <circle
       style="font-variation-settings:normal;opacity:1;vector-effect:none;fill:#000000;fill-opacity:1;stroke-width:0.2;stroke-linecap:butt;stroke-linejoin:miter;stroke-miterlimit:4;stroke-dasharray:none;stroke-dashoffset:0;stroke-opacity:1;stop-color:#000000;stop-opacity:1"
       id="path1501-5-0-5-6-0-5"
       cx="8.4666662"
       cy="108.9866"
       r="2.5135417" />
    <circle
       style="font-variation-settings:normal;opacity:1;vector-effect:none;fill:#000000;fill-opacity:1;stroke-width:0.2;stroke-linecap:butt;stroke-linejoin:miter;stroke-miterlimit:4;stroke-dasharray:none;stroke-dashoffset:0;stroke-opacity:1;stop-color:#000000;stop-opacity:1"
       id="path1501-5-0-5-6-0-5-4"
       cx="8.4666662"
       cy="127.79082"
       r="2.5135417" />
    <circle
       style="font-variation-settings:normal;opacity:1;vector-effect:none;fill:#000000;fill-opacity:1;stroke-width:0.2;stroke-linecap:butt;stroke-linejoin:miter;stroke-miterlimit:4;stroke-dasharray:none;stroke-dashoffset:0;stroke-opacity:1;stop-color:#000000;stop-opacity:1"
       id="path1501-5-0-5-6-0-5-4-9"
       cx="8.4666662"
       cy="144.72415"
       r="2.5135417" />
    <circle
       style="font-variation-settings:normal;opacity:1;vector-effect:none;fill:#000000;fill-opacity:1;stroke-width:0.2;stroke-linecap:butt;stroke-linejoin:miter;stroke-miterlimit:4;stroke-dasharray:none;stroke-dashoffset:0;stroke-opacity:1;stop-color:#000000;stop-opacity:1"
       id="path1501-5-0-5-6-0-5-4-9-8"
       cx="8.4666662"
       cy="165.66653"
       r="2.5135417" />
    <circle
       style="font-variation-settings:normal;opacity:1;vector-effect:none;fill:#000000;fill-opacity:1;stroke-width:0.2;stroke-linecap:butt;stroke-linejoin:miter;stroke-miterlimit:4;stroke-dasharray:none;stroke-dashoffset:0;stroke-opacity:1;stop-color:#000000;stop-opacity:1"
       id="path1501-5-0-5-6-0-5-4-9-8-2"
       cx="8.4666662"
       cy="182.59987"
       r="2.5135417" />
    <circle
       style="font-variation-settings:normal;opacity:1;vector-effect:none;fill:#000000;fill-opacity:1;stroke-width:0.2;stroke-linecap:butt;stroke-linejoin:miter;stroke-miterlimit:4;stroke-dasharray:none;stroke-dashoffset:0;stroke-opacity:1;stop-color:#000000;stop-opacity:1"
       id="path1501-9-4"
       cx="8.4666662"
       cy="217.16621"
       r="2.5135417" />
    <circle
       style="font-variation-settings:normal;opacity:1;vector-effect:none;fill:#000000;fill-opacity:1;stroke-width:0.2;stroke-linecap:butt;stroke-linejoin:miter;stroke-miterlimit:4;stroke-dasharray:none;stroke-dashoffset:0;stroke-opacity:1;stop-color:#000000;stop-opacity:1"
       id="path1501-9-4-4"
       cx="8.4666662"
       cy="200.23288"
       r="2.5135417" />
    <circle
       style="font-variation-settings:normal;opacity:1;vector-effect:none;fill:#000000;fill-opacity:1;stroke-width:0.2;stroke-linecap:butt;stroke-linejoin:miter;stroke-miterlimit:4;stroke-dasharray:none;stroke-dashoffset:0;stroke-opacity:1;stop-color:#000000;stop-opacity:1"
       id="path1501-50"
       cx="8.4666662"
       cy="4.8947835"
       r="2.5135417" />
    <circle
       style="font-variation-settings:normal;opacity:1;vector-effect:none;fill:#000000;fill-opacity:1;stroke-width:0.2;stroke-linecap:butt;stroke-linejoin:miter;stroke-miterlimit:4;stroke-dasharray:none;stroke-dashoffset:0;stroke-opacity:1;stop-color:#000000;stop-opacity:1"
       id="path1501-5-9"
       cx="8.4666662"
       cy="21.828115"
       r="2.5135417" />
    <circle
       style="font-variation-settings:normal;opacity:1;vector-effect:none;fill:#000000;fill-opacity:1;stroke-width:0.2;stroke-linecap:butt;stroke-linejoin:miter;stroke-miterlimit:4;stroke-dasharray:none;stroke-dashoffset:0;stroke-opacity:1;stop-color:#000000;stop-opacity:1"
       id="path1501-5-0-8"
       cx="8.4666662"
       cy="39.28117"
       r="2.5135417" />
    <circle
       style="font-variation-settings:normal;opacity:1;vector-effect:none;fill:#000000;fill-opacity:1;stroke-width:0.2;stroke-linecap:butt;stroke-linejoin:miter;stroke-miterlimit:4;stroke-dasharray:none;stroke-dashoffset:0;stroke-opacity:1;stop-color:#000000;stop-opacity:1"
       id="path1501-5-0-5-7"
       cx="8.4666662"
       cy="56.2145"
       r="2.5135417" />
    <circle
       style="font-variation-settings:normal;opacity:1;vector-effect:none;fill:#000000;fill-opacity:1;stroke-width:0.2;stroke-linecap:butt;stroke-linejoin:miter;stroke-miterlimit:4;stroke-dasharray:none;stroke-dashoffset:0;stroke-opacity:1;stop-color:#000000;stop-opacity:1"
       id="path1501-5-0-5-6-4"
       cx="8.4666662"
       cy="73.667549"
       r="2.5135417" />
    <circle
       style="font-variation-settings:normal;opacity:1;vector-effect:none;fill:#000000;fill-opacity:1;stroke-width:0.2;stroke-linecap:butt;stroke-linejoin:miter;stroke-miterlimit:4;stroke-dasharray:none;stroke-dashoffset:0;stroke-opacity:1;stop-color:#000000;stop-opacity:1"
       id="path1501-5-0-5-6-0-1"
       cx="8.4666662"
       cy="92.053261"
       r="2.5135417" />
    <circle
       style="font-variation-settings:normal;opacity:1;vector-effect:none;fill:#000000;fill-opacity:1;stroke-width:0.2;stroke-linecap:butt;stroke-linejoin:miter;stroke-miterlimit:4;stroke-dasharray:none;stroke-dashoffset:0;stroke-opacity:1;stop-color:#000000;stop-opacity:1"
       id="path1501-5-0-5-6-0-5-1"
       cx="8.4666662"
       cy="108.98659"
       r="2.5135417" />
    <circle
       style="font-variation-settings:normal;opacity:1;vector-effect:none;fill:#000000;fill-opacity:1;stroke-width:0.2;stroke-linecap:butt;stroke-linejoin:miter;stroke-miterlimit:4;stroke-dasharray:none;stroke-dashoffset:0;stroke-opacity:1;stop-color:#000000;stop-opacity:1"
       id="path1501-5-0-5-6-0-5-4-3"
       cx="8.4666662"
       cy="127.79081"
       r="2.5135417" />
    <circle
       style="font-variation-settings:normal;opacity:1;vector-effect:none;fill:#000000;fill-opacity:1;stroke-width:0.2;stroke-linecap:butt;stroke-linejoin:miter;stroke-miterlimit:4;stroke-dasharray:none;stroke-dashoffset:0;stroke-opacity:1;stop-color:#000000;stop-opacity:1"
       id="path1501-5-0-5-6-0-5-4-9-83"
       cx="8.4666662"
       cy="144.72415"
       r="2.5135417" />
    <circle
       style="font-variation-settings:normal;opacity:1;vector-effect:none;fill:#000000;fill-opacity:1;stroke-width:0.2;stroke-linecap:butt;stroke-linejoin:miter;stroke-miterlimit:4;stroke-dasharray:none;stroke-dashoffset:0;stroke-opacity:1;stop-color:#000000;stop-opacity:1"
       id="path1501-5-0-5-6-0-5-4-9-8-1"
       cx="8.4666662"
       cy="165.66652"
       r="2.5135417" />
    <circle
       style="font-variation-settings:normal;opacity:1;vector-effect:none;fill:#000000;fill-opacity:1;stroke-width:0.2;stroke-linecap:butt;stroke-linejoin:miter;stroke-miterlimit:4;stroke-dasharray:none;stroke-dashoffset:0;stroke-opacity:1;stop-color:#000000;stop-opacity:1"
       id="path1501-5-0-5-6-0-5-4-9-8-2-2"
       cx="8.4666662"
       cy="182.59985"
       r="2.5135417" />
    <circle
       style="font-variation-settings:normal;opacity:1;vector-effect:none;fill:#000000;fill-opacity:1;stroke-width:0.2;stroke-linecap:butt;stroke-linejoin:miter;stroke-miterlimit:4;stroke-dasharray:none;stroke-dashoffset:0;stroke-opacity:1;stop-color:#000000;stop-opacity:1"
       id="path1501-9-4-4-4"
       cx="8.4666662"
       cy="200.23288"
       r="2.5135417" />
    <circle
       style="font-variation-settings:normal;opacity:1;vector-effect:none;fill:#000000;fill-opacity:1;stroke-width:0.2;stroke-linecap:butt;stroke-linejoin:miter;stroke-miterlimit:4;stroke-dasharray:none;stroke-dashoffset:0;stroke-opacity:1;stop-color:#000000;stop-opacity:1"
       id="path1501-5-0-5-6-0-5-4-9-8-7"
       cx="8.4666662"
       cy="233.39987"
       r="2.5135417" />
    <circle
       style="font-variation-settings:normal;opacity:1;vector-effect:none;fill:#000000;fill-opacity:1;stroke-width:0.2;stroke-linecap:butt;stroke-linejoin:miter;stroke-miterlimit:4;stroke-dasharray:none;stroke-dashoffset:0;stroke-opacity:1;stop-color:#000000;stop-opacity:1"
       id="path1501-5-0-5-6-0-5-4-9-8-2-20"
       cx="8.4666662"
       cy="250.33321"
       r="2.5135417" />
    <circle
       style="font-variation-settings:normal;opacity:1;vector-effect:none;fill:#000000;fill-opacity:1;stroke-width:0.2;stroke-linecap:butt;stroke-linejoin:miter;stroke-miterlimit:4;stroke-dasharray:none;stroke-dashoffset:0;stroke-opacity:1;stop-color:#000000;stop-opacity:1"
       id="path1501-5-0-5-6-0-5-4-9-8-1-4"
       cx="8.4666662"
       cy="233.39986"
       r="2.5135417" />
    <circle
       style="font-variation-settings:normal;opacity:1;vector-effect:none;fill:#000000;fill-opacity:1;stroke-width:0.2;stroke-linecap:butt;stroke-linejoin:miter;stroke-miterlimit:4;stroke-dasharray:none;stroke-dashoffset:0;stroke-opacity:1;stop-color:#000000;stop-opacity:1"
       id="path1501-5-0-5-6-0-5-4-9-8-2-2-7"
       cx="8.4666662"
       cy="250.33319"
       r="2.5135417" />
    <circle
       style="font-variation-settings:normal;opacity:1;vector-effect:none;fill:#000000;fill-opacity:1;stroke-width:0.2;stroke-linecap:butt;stroke-linejoin:miter;stroke-miterlimit:4;stroke-dasharray:none;stroke-dashoffset:0;stroke-opacity:1;stop-color:#000000;stop-opacity:1"
       id="path1501-5-4"
       cx="8.4666662"
       cy="394.89053"
       r="2.5135417" />
    <circle
       style="font-variation-settings:normal;opacity:1;vector-effect:none;fill:#000000;fill-opacity:1;stroke-width:0.2;stroke-linecap:butt;stroke-linejoin:miter;stroke-miterlimit:4;stroke-dasharray:none;stroke-dashoffset:0;stroke-opacity:1;stop-color:#000000;stop-opacity:1"
       id="path1501-5-9-9"
       cx="8.4666662"
       cy="394.8905"
       r="2.5135417" />
    <circle
       style="font-variation-settings:normal;opacity:1;vector-effect:none;fill:#000000;fill-opacity:1;stroke-width:0.2;stroke-linecap:butt;stroke-linejoin:miter;stroke-miterlimit:4;stroke-dasharray:none;stroke-dashoffset:0;stroke-opacity:1;stop-color:#000000;stop-opacity:1"
       id="path1501-0-0"
       cx="8.4666662"
       cy="377.95731"
       r="2.5135417" />
    <circle
       style="font-variation-settings:normal;opacity:1;vector-effect:none;fill:#000000;fill-opacity:1;stroke-width:0.2;stroke-linecap:butt;stroke-linejoin:miter;stroke-miterlimit:4;stroke-dasharray:none;stroke-dashoffset:0;stroke-opacity:1;stop-color:#000000;stop-opacity:1"
       id="path1501-5-4-5"
       cx="8.4666662"
       cy="377.95721"
       r="2.5135417" />
    <circle
       style="font-variation-settings:normal;opacity:1;vector-effect:none;fill:#000000;fill-opacity:1;stroke-width:0.2;stroke-linecap:butt;stroke-linejoin:miter;stroke-miterlimit:4;stroke-dasharray:none;stroke-dashoffset:0;stroke-opacity:1;stop-color:#000000;stop-opacity:1"
       id="path1501-5-9-9-5"
       cx="8.4666662"
       cy="377.95718"
       r="2.5135417" />
    <circle
       style="font-variation-settings:normal;opacity:1;vector-effect:none;fill:#000000;fill-opacity:1;stroke-width:0.2;stroke-linecap:butt;stroke-linejoin:miter;stroke-miterlimit:4;stroke-dasharray:none;stroke-dashoffset:0;stroke-opacity:1;stop-color:#000000;stop-opacity:1"
       id="path1501-0-0-6"
       cx="8.4666662"
       cy="362.49396"
       r="2.5135417" />
    <circle
       style="font-variation-settings:normal;opacity:1;vector-effect:none;fill:#000000;fill-opacity:1;stroke-width:0.2;stroke-linecap:butt;stroke-linejoin:miter;stroke-miterlimit:4;stroke-dasharray:none;stroke-dashoffset:0;stroke-opacity:1;stop-color:#000000;stop-opacity:1"
       id="path1501-5-4-5-9"
       cx="8.4666662"
       cy="362.49387"
       r="2.5135417" />
    <circle
       style="font-variation-settings:normal;opacity:1;vector-effect:none;fill:#000000;fill-opacity:1;stroke-width:0.2;stroke-linecap:butt;stroke-linejoin:miter;stroke-miterlimit:4;stroke-dasharray:none;stroke-dashoffset:0;stroke-opacity:1;stop-color:#000000;stop-opacity:1"
       id="path1501-5-9-9-5-6"
       cx="8.4666662"
       cy="362.49384"
       r="2.5135417" />
    <circle
       style="font-variation-settings:normal;opacity:1;vector-effect:none;fill:#000000;fill-opacity:1;stroke-width:0.2;stroke-linecap:butt;stroke-linejoin:miter;stroke-miterlimit:4;stroke-dasharray:none;stroke-dashoffset:0;stroke-opacity:1;stop-color:#000000;stop-opacity:1"
       id="path1501-0-0-6-0"
       cx="8.4666662"
       cy="345.56064"
       r="2.5135417" />
    <circle
       style="font-variation-settings:normal;opacity:1;vector-effect:none;fill:#000000;fill-opacity:1;stroke-width:0.2;stroke-linecap:butt;stroke-linejoin:miter;stroke-miterlimit:4;stroke-dasharray:none;stroke-dashoffset:0;stroke-opacity:1;stop-color:#000000;stop-opacity:1"
       id="path1501-5-4-5-9-6"
       cx="8.4666662"
       cy="345.56055"
       r="2.5135417" />
    <circle
       style="font-variation-settings:normal;opacity:1;vector-effect:none;fill:#000000;fill-opacity:1;stroke-width:0.2;stroke-linecap:butt;stroke-linejoin:miter;stroke-miterlimit:4;stroke-dasharray:none;stroke-dashoffset:0;stroke-opacity:1;stop-color:#000000;stop-opacity:1"
       id="path1501-5-9-9-5-6-0"
       cx="8.4666662"
       cy="345.56052"
       r="2.5135417" />
    <circle
       style="font-variation-settings:normal;opacity:1;vector-effect:none;fill:#000000;fill-opacity:1;stroke-width:0.2;stroke-linecap:butt;stroke-linejoin:miter;stroke-miterlimit:4;stroke-dasharray:none;stroke-dashoffset:0;stroke-opacity:1;stop-color:#000000;stop-opacity:1"
       id="path1501-0-0-6-0-7"
       cx="8.4666662"
       cy="331.43365"
       r="2.5135417" />
    <circle
       style="font-variation-settings:normal;opacity:1;vector-effect:none;fill:#000000;fill-opacity:1;stroke-width:0.2;stroke-linecap:butt;stroke-linejoin:miter;stroke-miterlimit:4;stroke-dasharray:none;stroke-dashoffset:0;stroke-opacity:1;stop-color:#000000;stop-opacity:1"
       id="path1501-5-4-5-9-6-9"
       cx="8.4666662"
       cy="331.43356"
       r="2.5135417" />
    <circle
       style="font-variation-settings:normal;opacity:1;vector-effect:none;fill:#000000;fill-opacity:1;stroke-width:0.2;stroke-linecap:butt;stroke-linejoin:miter;stroke-miterlimit:4;stroke-dasharray:none;stroke-dashoffset:0;stroke-opacity:1;stop-color:#000000;stop-opacity:1"
       id="path1501-5-9-9-5-6-0-4"
       cx="8.4666662"
       cy="331.43353"
       r="2.5135417" />
    <circle
       style="font-variation-settings:normal;opacity:1;vector-effect:none;fill:#000000;fill-opacity:1;stroke-width:0.2;stroke-linecap:butt;stroke-linejoin:miter;stroke-miterlimit:4;stroke-dasharray:none;stroke-dashoffset:0;stroke-opacity:1;stop-color:#000000;stop-opacity:1"
       id="path1501-0-0-6-0-7-0-1"
       cx="8.4666662"
       cy="298.36884"
       r="2.5135417" />
    <circle
       style="font-variation-settings:normal;opacity:1;vector-effect:none;fill:#000000;fill-opacity:1;stroke-width:0.2;stroke-linecap:butt;stroke-linejoin:miter;stroke-miterlimit:4;stroke-dasharray:none;stroke-dashoffset:0;stroke-opacity:1;stop-color:#000000;stop-opacity:1"
       id="path1501-5-4-5-9-6-9-4-9"
       cx="8.4666662"
       cy="298.36874"
       r="2.5135417" />
    <circle
       style="font-variation-settings:normal;opacity:1;vector-effect:none;fill:#000000;fill-opacity:1;stroke-width:0.2;stroke-linecap:butt;stroke-linejoin:miter;stroke-miterlimit:4;stroke-dasharray:none;stroke-dashoffset:0;stroke-opacity:1;stop-color:#000000;stop-opacity:1"
       id="path1501-5-9-9-5-6-0-4-4-4"
       cx="8.4666662"
       cy="298.36871"
       r="2.5135417" />
    <circle
       style="font-variation-settings:normal;opacity:1;vector-effect:none;fill:#000000;fill-opacity:1;stroke-width:0.2;stroke-linecap:butt;stroke-linejoin:miter;stroke-miterlimit:4;stroke-dasharray:none;stroke-dashoffset:0;stroke-opacity:1;stop-color:#000000;stop-opacity:1"
       id="path1501-0-0-6-0-7-0-1-4-4"
       cx="8.4666662"
       cy="265.17035"
       r="2.5135417" />
    <circle
       style="font-variation-settings:normal;opacity:1;vector-effect:none;fill:#000000;fill-opacity:1;stroke-width:0.2;stroke-linecap:butt;stroke-linejoin:miter;stroke-miterlimit:4;stroke-dasharray:none;stroke-dashoffset:0;stroke-opacity:1;stop-color:#000000;stop-opacity:1"
       id="path1501-5-4-5-9-6-9-4-9-7-3"
       cx="8.4666662"
       cy="265.17026"
       r="2.5135417" />
    <circle
       style="font-variation-settings:normal;opacity:1;vector-effect:none;fill:#000000;fill-opacity:1;stroke-width:0.2;stroke-linecap:butt;stroke-linejoin:miter;stroke-miterlimit:4;stroke-dasharray:none;stroke-dashoffset:0;stroke-opacity:1;stop-color:#000000;stop-opacity:1"
       id="path1501-5-9-9-5-6-0-4-4-4-5-0"
       cx="8.4666662"
       cy="265.17023"
       r="2.5135417" />
    <circle
       style="font-variation-settings:normal;opacity:1;vector-effect:none;fill:#000000;fill-opacity:1;stroke-width:0.2;stroke-linecap:butt;stroke-linejoin:miter;stroke-miterlimit:4;stroke-dasharray:none;stroke-dashoffset:0;stroke-opacity:1;stop-color:#000000;stop-opacity:1"
       id="path1501-5-9-9-5-6-0-4-4-4-5-0-8"
       cx="8.4666662"
       cy="282.10355"
       r="2.5135417" />
    <circle
       style="font-variation-settings:normal;opacity:1;vector-effect:none;fill:#000000;fill-opacity:1;stroke-width:0.2;stroke-linecap:butt;stroke-linejoin:miter;stroke-miterlimit:4;stroke-dasharray:none;stroke-dashoffset:0;stroke-opacity:1;stop-color:#000000;stop-opacity:1"
       id="path1501-0-0-6-0-7-0-1-7"
       cx="8.4666662"
       cy="315.30215"
       r="2.5135417" />
    <path
       style="fill:none;stroke:#000000;stroke-width:0.264583px;stroke-linecap:butt;stroke-linejoin:miter;stroke-opacity:1"
       d="m 3.2e-6,235.74375 c 0.17107516,0.0746 0.3689551,0.042 0.55124339,0.042 0.69268341,0 1.37817971,-0.0749 2.07133881,-0.0501 0.7683352,0.0274 1.5358878,0.0501 2.3051998,0.0501 0.3786317,0 0.7572634,0 1.1358954,0 0.1881648,0 0.3801975,-0.011 0.5679477,0 0.2784477,0.0164 0.5558771,0.009 0.8352173,0.0167 0.3675795,0.0105 0.7347021,0.0432 1.1024867,0.0501 1.1517003,0.0217 2.3058447,0 3.4577997,0 1.124759,0 2.249518,0 3.374277,0 0.160532,0 0.324211,0.009 0.484426,0 0.201246,-0.0118 0.399657,-0.0501 0.601357,-0.0501 0.09002,0 0.195374,0.0148 0.283974,0 0.13192,-0.022 -0.03007,-0.0167 0.100226,-0.0167 0.03341,0 0.06682,0 0.100226,0 0.0167,0 0.06681,5.3e-4 0.05011,0 -0.470427,-0.0143 -0.940875,-0.028 -1.411312,-0.042"
       id="path2738" />
    <path
       style="fill:none;stroke:#000000;stroke-width:0.264583px;stroke-linecap:butt;stroke-linejoin:miter;stroke-opacity:1"
       d="M 3.1973509e-6,252.67708 C 0.17107837,252.75168 0.3689583,252.71908 0.55124659,252.71908 c 0.69268341,0 1.37817971,-0.0749 2.07133881,-0.0501 0.7683352,0.0274 1.5358877,0.0501 2.3051998,0.0501 0.3786317,0 0.7572634,0 1.1358954,0 0.1881648,0 0.3801975,-0.011 0.5679477,0 0.2784477,0.0164 0.5558771,0.009 0.8352173,0.0167 0.3675796,0.0105 0.7347022,0.0432 1.1024868,0.0501 1.1517003,0.0217 2.3058446,0 3.4577996,0 1.124759,0 2.249518,0 3.374277,0 0.160532,0 0.324211,0.009 0.484426,0 0.201246,-0.0118 0.399657,-0.0501 0.601357,-0.0501 0.09002,0 0.195374,0.0148 0.283974,0 0.13192,-0.022 -0.03007,-0.0167 0.100226,-0.0167 0.03341,0 0.06682,0 0.100226,0 0.0167,0 0.06681,5.3e-4 0.05011,0 -0.470427,-0.0143 -0.940875,-0.028 -1.411312,-0.042"
       id="path2738-5" />
    <path
       style="fill:none;stroke:#000000;stroke-width:0.264583px;stroke-linecap:butt;stroke-linejoin:miter;stroke-opacity:1"
       d="M 3.1973509e-6,269.61041 C 0.17107837,269.68501 0.3689583,269.65241 0.55124659,269.65241 c 0.69268341,0 1.37817971,-0.0749 2.07133881,-0.0501 0.7683352,0.0274 1.5358877,0.0501 2.3051998,0.0501 0.3786317,0 0.7572634,0 1.1358954,0 0.1881648,0 0.3801975,-0.011 0.5679477,0 0.2784477,0.0164 0.5558771,0.009 0.8352173,0.0167 0.3675796,0.0105 0.7347022,0.0432 1.1024868,0.0501 1.1517003,0.0217 2.3058446,0 3.4577996,0 1.124759,0 2.249518,0 3.374277,0 0.160532,0 0.324211,0.009 0.484426,0 0.201246,-0.0118 0.399657,-0.0501 0.601357,-0.0501 0.09002,0 0.195374,0.0148 0.283974,0 0.13192,-0.022 -0.03007,-0.0167 0.100226,-0.0167 0.03341,0 0.06682,0 0.100226,0 0.0167,0 0.06681,5.3e-4 0.05011,0 -0.470427,-0.0143 -0.940875,-0.028 -1.411312,-0.042"
       id="path2738-1" />
    <path
       style="fill:none;stroke:#000000;stroke-width:0.264583px;stroke-linecap:butt;stroke-linejoin:miter;stroke-opacity:1"
       d="M 3.1973509e-6,286.54374 C 0.17107837,286.61834 0.3689583,286.58574 0.55124659,286.58574 c 0.69268341,0 1.37817971,-0.0749 2.07133881,-0.0501 0.7683352,0.0274 1.5358877,0.0501 2.3051998,0.0501 0.3786317,0 0.7572634,0 1.1358954,0 0.1881648,0 0.3801975,-0.011 0.5679477,0 0.2784477,0.0164 0.5558771,0.009 0.8352173,0.0167 0.3675796,0.0105 0.7347022,0.0432 1.1024868,0.0501 1.1517003,0.0217 2.3058446,0 3.4577996,0 1.124759,0 2.249518,0 3.374277,0 0.160532,0 0.324211,0.009 0.484426,0 0.201246,-0.0118 0.399657,-0.0501 0.601357,-0.0501 0.09002,0 0.195374,0.0148 0.283974,0 0.13192,-0.022 -0.03007,-0.0167 0.100226,-0.0167 0.03341,0 0.06682,0 0.100226,0 0.0167,0 0.06681,5.3e-4 0.05011,0 -0.470427,-0.0143 -0.940875,-0.028 -1.411312,-0.042"
       id="path2738-6" />
    <path
       style="fill:none;stroke:#000000;stroke-width:0.264583px;stroke-linecap:butt;stroke-linejoin:miter;stroke-opacity:1"
       d="M 3.1973509e-6,303.47708 C 0.17107837,303.55168 0.3689583,303.51908 0.55124659,303.51908 c 0.69268341,0 1.37817971,-0.0749 2.07133881,-0.0501 0.7683352,0.0274 1.5358877,0.0501 2.3051998,0.0501 0.3786317,0 0.7572634,0 1.1358954,0 0.1881648,0 0.3801975,-0.011 0.5679477,0 0.2784477,0.0164 0.5558771,0.009 0.8352173,0.0167 0.3675796,0.0105 0.7347022,0.0432 1.1024868,0.0501 1.1517003,0.0217 2.3058446,0 3.4577996,0 1.124759,0 2.249518,0 3.374277,0 0.160532,0 0.324211,0.009 0.484426,0 0.201246,-0.0118 0.399657,-0.0501 0.601357,-0.0501 0.09002,0 0.195374,0.0148 0.283974,0 0.13192,-0.022 -0.03007,-0.0167 0.100226,-0.0167 0.03341,0 0.06682,0 0.100226,0 0.0167,0 0.06681,5.3e-4 0.05011,0 -0.470427,-0.0143 -0.940875,-0.028 -1.411312,-0.042"
       id="path2738-2" />
    <path
       style="fill:none;stroke:#000000;stroke-width:0.264583px;stroke-linecap:butt;stroke-linejoin:miter;stroke-opacity:1"
       d="M 3.1973509e-6,320.41041 C 0.17107837,320.48501 0.3689583,320.45241 0.55124659,320.45241 c 0.69268341,0 1.37817971,-0.0749 2.07133881,-0.0501 0.7683352,0.0274 1.5358877,0.0501 2.3051998,0.0501 0.3786317,0 0.7572634,0 1.1358954,0 0.1881648,0 0.3801975,-0.011 0.5679477,0 0.2784477,0.0164 0.5558771,0.009 0.8352173,0.0167 0.3675796,0.0105 0.7347022,0.0432 1.1024868,0.0501 1.1517005,0.0217 2.3058446,0 3.4577996,0 1.124759,0 2.249518,0 3.374277,0 0.160532,0 0.324211,0.009 0.484426,0 0.201246,-0.0118 0.399657,-0.0501 0.601357,-0.0501 0.09002,0 0.195374,0.0148 0.283974,0 0.13192,-0.022 -0.03007,-0.0167 0.100226,-0.0167 0.03341,0 0.06682,0 0.100226,0 0.0167,0 0.06681,5.3e-4 0.05011,0 -0.470427,-0.0143 -0.940875,-0.028 -1.411312,-0.042"
       id="path2738-5-9" />
    <path
       style="fill:none;stroke:#000000;stroke-width:0.264583px;stroke-linecap:butt;stroke-linejoin:miter;stroke-opacity:1"
       d="M 3.1973509e-6,337.34374 C 0.17107837,337.41834 0.3689583,337.38574 0.55124659,337.38574 c 0.69268341,0 1.37817971,-0.0749 2.07133881,-0.0501 0.7683352,0.0274 1.5358877,0.0501 2.3051998,0.0501 0.3786317,0 0.7572634,0 1.1358954,0 0.1881648,0 0.3801975,-0.011 0.5679477,0 0.2784477,0.0164 0.5558771,0.009 0.8352173,0.0167 0.3675796,0.0105 0.7347022,0.0432 1.1024868,0.0501 1.1517005,0.0217 2.3058446,0 3.4577996,0 1.124759,0 2.249518,0 3.374277,0 0.160532,0 0.324211,0.009 0.484426,0 0.201246,-0.0118 0.399657,-0.0501 0.601357,-0.0501 0.09002,0 0.195374,0.0148 0.283974,0 0.13192,-0.022 -0.03007,-0.0167 0.100226,-0.0167 0.03341,0 0.06682,0 0.100226,0 0.0167,0 0.06681,5.3e-4 0.05011,0 -0.470427,-0.0143 -0.940875,-0.028 -1.411312,-0.042"
       id="path2738-1-4" />
    <path
       style="fill:none;stroke:#000000;stroke-width:0.264583px;stroke-linecap:butt;stroke-linejoin:miter;stroke-opacity:1"
       d="M 3.1973509e-6,354.27707 C 0.17107837,354.35167 0.3689583,354.31907 0.55124659,354.31907 c 0.69268341,0 1.37817971,-0.0749 2.07133881,-0.0501 0.7683352,0.0274 1.5358877,0.0501 2.3051998,0.0501 0.3786317,0 0.7572634,0 1.1358954,0 0.1881648,0 0.3801975,-0.011 0.5679477,0 0.2784477,0.0164 0.5558771,0.009 0.8352173,0.0167 0.3675796,0.0105 0.7347022,0.0432 1.1024868,0.0501 1.1517005,0.0217 2.3058446,0 3.4577996,0 1.124759,0 2.249518,0 3.374277,0 0.160532,0 0.324211,0.009 0.484426,0 0.201246,-0.0118 0.399657,-0.0501 0.601357,-0.0501 0.09002,0 0.195374,0.0148 0.283974,0 0.13192,-0.022 -0.03007,-0.0167 0.100226,-0.0167 0.03341,0 0.06682,0 0.100226,0 0.0167,0 0.06681,5.3e-4 0.05011,0 -0.470427,-0.0143 -0.940875,-0.028 -1.411312,-0.042"
       id="path2738-6-0" />
    <path
       style="fill:none;stroke:#000000;stroke-width:0.264583px;stroke-linecap:butt;stroke-linejoin:miter;stroke-opacity:1"
       d="M 3.1973509e-6,354.27708 C 0.17107837,354.35168 0.3689583,354.31908 0.55124659,354.31908 c 0.69268341,0 1.37817971,-0.0749 2.07133881,-0.0501 0.7683352,0.0274 1.5358877,0.0501 2.3051998,0.0501 0.3786317,0 0.7572634,0 1.1358954,0 0.1881648,0 0.3801975,-0.011 0.5679477,0 0.2784477,0.0164 0.5558771,0.009 0.8352173,0.0167 0.3675796,0.0105 0.7347022,0.0432 1.1024868,0.0501 1.1517005,0.0217 2.3058446,0 3.4577996,0 1.124759,0 2.249518,0 3.374277,0 0.160532,0 0.324211,0.009 0.484426,0 0.201246,-0.0118 0.399657,-0.0501 0.601357,-0.0501 0.09002,0 0.195374,0.0148 0.283974,0 0.13192,-0.022 -0.03007,-0.0167 0.100226,-0.0167 0.03341,0 0.06682,0 0.100226,0 0.0167,0 0.06681,5.3e-4 0.05011,0 -0.470427,-0.0143 -0.940875,-0.028 -1.411312,-0.042"
       id="path2738-2-5" />
    <path
       style="fill:none;stroke:#000000;stroke-width:0.264583px;stroke-linecap:butt;stroke-linejoin:miter;stroke-opacity:1"
       d="M 3.1973509e-6,371.21041 C 0.17107837,371.28501 0.3689583,371.25241 0.55124659,371.25241 c 0.69268341,0 1.37817971,-0.0749 2.07133881,-0.0501 0.7683352,0.0274 1.5358877,0.0501 2.3051998,0.0501 0.3786317,0 0.7572634,0 1.1358954,0 0.1881648,0 0.3801975,-0.011 0.5679477,0 0.2784477,0.0164 0.5558771,0.009 0.8352173,0.0167 0.3675796,0.0105 0.7347022,0.0432 1.1024868,0.0501 1.1517005,0.0217 2.3058446,0 3.4577996,0 1.124759,0 2.249518,0 3.374277,0 0.160532,0 0.324211,0.009 0.484426,0 0.201246,-0.0118 0.399657,-0.0501 0.601357,-0.0501 0.09002,0 0.195374,0.0148 0.283974,0 0.13192,-0.022 -0.03007,-0.0167 0.100226,-0.0167 0.03341,0 0.06682,0 0.100226,0 0.0167,0 0.06681,5.3e-4 0.05011,0 -0.470427,-0.0143 -0.940875,-0.028 -1.411312,-0.042"
       id="path2738-5-9-8" />
    <path
       style="fill:none;stroke:#000000;stroke-width:0.264583px;stroke-linecap:butt;stroke-linejoin:miter;stroke-opacity:1"
       d="M 3.1973509e-6,388.14374 C 0.17107837,388.21834 0.3689583,388.18574 0.55124659,388.18574 c 0.69268341,0 1.37817971,-0.0749 2.07133881,-0.0501 0.7683352,0.0274 1.5358877,0.0501 2.3051998,0.0501 0.3786317,0 0.7572634,0 1.1358954,0 0.1881648,0 0.3801975,-0.011 0.5679477,0 0.2784477,0.0164 0.5558771,0.009 0.8352173,0.0167 0.3675796,0.0105 0.7347022,0.0432 1.1024868,0.0501 1.1517005,0.0217 2.3058446,0 3.4577996,0 1.124759,0 2.249518,0 3.374277,0 0.160532,0 0.324211,0.009 0.484426,0 0.201246,-0.0118 0.399657,-0.0501 0.601357,-0.0501 0.09002,0 0.195374,0.0148 0.283974,0 0.13192,-0.022 -0.03007,-0.0167 0.100226,-0.0167 0.03341,0 0.06682,0 0.100226,0 0.0167,0 0.06681,5.3e-4 0.05011,0 -0.470427,-0.0143 -0.940875,-0.028 -1.411312,-0.042"
       id="path2738-1-4-1" />
    <path
       style="fill:none;stroke:#000000;stroke-width:0.264583px;stroke-linecap:butt;stroke-linejoin:miter;stroke-opacity:1"
       d="M 3.1973509e-6,405.07707 C 0.17107837,405.15167 0.3689583,405.11907 0.55124659,405.11907 c 0.69268341,0 1.37817971,-0.0749 2.07133881,-0.0501 0.7683352,0.0274 1.5358877,0.0501 2.3051998,0.0501 0.3786317,0 0.7572634,0 1.1358954,0 0.1881648,0 0.3801975,-0.011 0.5679477,0 0.2784477,0.0164 0.5558771,0.009 0.8352173,0.0167 0.3675796,0.0105 0.7347022,0.0432 1.1024868,0.0501 1.1517005,0.0217 2.3058446,0 3.4577996,0 1.124759,0 2.249518,0 3.374277,0 0.160532,0 0.324211,0.009 0.484426,0 0.201246,-0.0118 0.399657,-0.0501 0.601357,-0.0501 0.09002,0 0.195374,0.0148 0.283974,0 0.13192,-0.022 -0.03007,-0.0167 0.100226,-0.0167 0.03341,0 0.06682,0 0.100226,0 0.0167,0 0.06681,5.3e-4 0.05011,0 -0.470427,-0.0143 -0.940875,-0.028 -1.411312,-0.042"
       id="path2738-6-0-9" />
    <path
       style="fill:none;stroke:#000000;stroke-width:0.264583px;stroke-linecap:butt;stroke-linejoin:miter;stroke-opacity:1"
       d="M 3.1973509e-6,168.01046 C 0.17107837,168.08506 0.3689583,168.05246 0.55124659,168.05246 c 0.69268341,0 1.37817971,-0.0749 2.07133881,-0.0501 0.7683352,0.0274 1.5358877,0.0501 2.3051998,0.0501 0.3786317,0 0.7572634,0 1.1358954,0 0.1881648,0 0.3801975,-0.011 0.5679477,0 0.2784477,0.0164 0.5558771,0.009 0.8352173,0.0167 0.3675796,0.0105 0.7347022,0.0432 1.1024868,0.0501 1.1517005,0.0217 2.3058446,0 3.4577996,0 1.124759,0 2.249518,0 3.374277,0 0.160532,0 0.324211,0.009 0.484426,0 0.201246,-0.0118 0.399657,-0.0501 0.601357,-0.0501 0.09002,0 0.195374,0.0148 0.283974,0 0.13192,-0.022 -0.03007,-0.0167 0.100226,-0.0167 0.03341,0 0.06682,0 0.100226,0 0.0167,0 0.06681,5.3e-4 0.05011,0 -0.470427,-0.0143 -0.940875,-0.028 -1.411312,-0.042"
       id="path2738-2-5-4" />
    <path
       style="fill:none;stroke:#000000;stroke-width:0.264583px;stroke-linecap:butt;stroke-linejoin:miter;stroke-opacity:1"
       d="M 3.1973509e-6,184.94379 C 0.17107837,185.01839 0.3689583,184.98579 0.55124659,184.98579 c 0.69268341,0 1.37817971,-0.0749 2.07133881,-0.0501 0.7683352,0.0274 1.5358877,0.0501 2.3051998,0.0501 0.3786317,0 0.7572634,0 1.1358954,0 0.1881648,0 0.3801975,-0.011 0.5679477,0 0.2784477,0.0164 0.5558771,0.009 0.8352173,0.0167 0.3675796,0.0105 0.7347022,0.0432 1.1024868,0.0501 1.1517005,0.0217 2.3058446,0 3.4577996,0 1.124759,0 2.249518,0 3.374277,0 0.160532,0 0.324211,0.009 0.484426,0 0.201246,-0.0118 0.399657,-0.0501 0.601357,-0.0501 0.09002,0 0.195374,0.0148 0.283974,0 0.13192,-0.022 -0.03007,-0.0167 0.100226,-0.0167 0.03341,0 0.06682,0 0.100226,0 0.0167,0 0.06681,5.3e-4 0.05011,0 -0.470427,-0.0143 -0.940875,-0.028 -1.411312,-0.042"
       id="path2738-5-9-8-3" />
    <path
       style="fill:none;stroke:#000000;stroke-width:0.264583px;stroke-linecap:butt;stroke-linejoin:miter;stroke-opacity:1"
       d="M 3.1973509e-6,201.87712 C 0.17107837,201.95172 0.3689583,201.91912 0.55124659,201.91912 c 0.69268341,0 1.37817971,-0.0749 2.07133881,-0.0501 0.7683352,0.0274 1.5358877,0.0501 2.3051998,0.0501 0.3786317,0 0.7572634,0 1.1358954,0 0.1881648,0 0.3801975,-0.011 0.5679477,0 0.2784477,0.0164 0.5558771,0.009 0.8352173,0.0167 0.3675796,0.0105 0.7347022,0.0432 1.1024868,0.0501 1.1517005,0.0217 2.3058446,0 3.4577996,0 1.124759,0 2.249518,0 3.374277,0 0.160532,0 0.324211,0.009 0.484426,0 0.201246,-0.0118 0.399657,-0.0501 0.601357,-0.0501 0.09002,0 0.195374,0.0148 0.283974,0 0.13192,-0.022 -0.03007,-0.0167 0.100226,-0.0167 0.03341,0 0.06682,0 0.100226,0 0.0167,0 0.06681,5.3e-4 0.05011,0 -0.470427,-0.0143 -0.940875,-0.028 -1.411312,-0.042"
       id="path2738-1-4-1-0" />
    <path
       style="fill:none;stroke:#000000;stroke-width:0.264583px;stroke-linecap:butt;stroke-linejoin:miter;stroke-opacity:1"
       d="M 3.1973509e-6,218.81045 C 0.17107837,218.88505 0.3689583,218.85245 0.55124659,218.85245 c 0.69268341,0 1.37817971,-0.0749 2.07133881,-0.0501 0.7683352,0.0274 1.5358877,0.0501 2.3051998,0.0501 0.3786317,0 0.7572634,0 1.1358954,0 0.1881648,0 0.3801975,-0.011 0.5679477,0 0.2784477,0.0164 0.5558771,0.009 0.8352173,0.0167 0.3675796,0.0105 0.7347022,0.0432 1.1024868,0.0501 1.1517005,0.0217 2.3058446,0 3.4577996,0 1.124759,0 2.249518,0 3.374277,0 0.160532,0 0.324211,0.009 0.484426,0 0.201246,-0.0118 0.399657,-0.0501 0.601357,-0.0501 0.09002,0 0.195374,0.0148 0.283974,0 0.13192,-0.022 -0.03007,-0.0167 0.100226,-0.0167 0.03341,0 0.06682,0 0.100226,0 0.0167,0 0.06681,5.3e-4 0.05011,0 -0.470427,-0.0143 -0.940875,-0.028 -1.411312,-0.042"
       id="path2738-6-0-9-5" />
    <path
       style="fill:none;stroke:#000000;stroke-width:0.264583px;stroke-linecap:butt;stroke-linejoin:miter;stroke-opacity:1"
       d="M 3.1973509e-6,100.27714 C 0.17107837,100.35174 0.3689583,100.31914 0.55124659,100.31914 c 0.69268341,0 1.37817971,-0.0749 2.07133881,-0.0501 0.7683352,0.0274 1.5358877,0.0501 2.3051998,0.0501 0.3786317,0 0.7572634,0 1.1358954,0 0.1881648,0 0.3801975,-0.011 0.5679477,0 0.2784477,0.0164 0.5558771,0.009 0.8352173,0.0167 0.3675796,0.0105 0.7347022,0.0432 1.1024868,0.0501 1.1517005,0.0217 2.3058446,0 3.4577996,0 1.124759,0 2.249518,0 3.374277,0 0.160532,0 0.324211,0.009 0.484426,0 0.201246,-0.0118 0.399657,-0.0501 0.601357,-0.0501 0.09002,0 0.195374,0.0148 0.283974,0 0.13192,-0.022 -0.03007,-0.0167 0.100226,-0.0167 0.03341,0 0.06682,0 0.100226,0 0.0167,0 0.06681,5.3e-4 0.05011,0 -0.470427,-0.0143 -0.940875,-0.028 -1.411312,-0.042"
       id="path2738-2-5-4-7" />
    <path
       style="fill:none;stroke:#000000;stroke-width:0.264583px;stroke-linecap:butt;stroke-linejoin:miter;stroke-opacity:1"
       d="M 3.1973509e-6,117.21047 C 0.17107837,117.28507 0.3689583,117.25247 0.55124659,117.25247 c 0.69268341,0 1.37817971,-0.0749 2.07133881,-0.0501 0.7683352,0.0274 1.5358877,0.0501 2.3051998,0.0501 0.3786317,0 0.7572634,0 1.1358954,0 0.1881648,0 0.3801975,-0.011 0.5679477,0 0.2784477,0.0164 0.5558771,0.009 0.8352173,0.0167 0.3675796,0.0105 0.7347022,0.0432 1.1024868,0.0501 1.1517005,0.0217 2.3058446,0 3.4577996,0 1.124759,0 2.249518,0 3.374277,0 0.160532,0 0.324211,0.009 0.484426,0 0.201246,-0.0118 0.399657,-0.0501 0.601357,-0.0501 0.09002,0 0.195374,0.0148 0.283974,0 0.13192,-0.022 -0.03007,-0.0167 0.100226,-0.0167 0.03341,0 0.06682,0 0.100226,0 0.0167,0 0.06681,5.3e-4 0.05011,0 -0.470427,-0.0143 -0.940875,-0.028 -1.411312,-0.042"
       id="path2738-5-9-8-3-1" />
    <path
       style="fill:none;stroke:#000000;stroke-width:0.264583px;stroke-linecap:butt;stroke-linejoin:miter;stroke-opacity:1"
       d="M 3.1973509e-6,134.1438 C 0.17107837,134.2184 0.3689583,134.1858 0.55124659,134.1858 c 0.69268341,0 1.37817971,-0.0749 2.07133881,-0.0501 0.7683352,0.0274 1.5358877,0.0501 2.3051998,0.0501 0.3786317,0 0.7572634,0 1.1358954,0 0.1881648,0 0.3801975,-0.011 0.5679477,0 0.2784477,0.0164 0.5558771,0.009 0.8352173,0.0167 0.3675796,0.0105 0.7347022,0.0432 1.1024868,0.0501 1.1517005,0.0217 2.3058446,0 3.4577996,0 1.124759,0 2.249518,0 3.374277,0 0.160532,0 0.324211,0.009 0.484426,0 0.201246,-0.0118 0.399657,-0.0501 0.601357,-0.0501 0.09002,0 0.195374,0.0148 0.283974,0 0.13192,-0.022 -0.03007,-0.0167 0.100226,-0.0167 0.03341,0 0.06682,0 0.100226,0 0.0167,0 0.06681,5.3e-4 0.05011,0 -0.470427,-0.0143 -0.940875,-0.028 -1.411312,-0.042"
       id="path2738-1-4-1-0-5" />
    <path
       style="fill:none;stroke:#000000;stroke-width:0.264583px;stroke-linecap:butt;stroke-linejoin:miter;stroke-opacity:1"
       d="M 3.1973509e-6,151.07713 C 0.17107837,151.15173 0.3689583,151.11913 0.55124659,151.11913 c 0.69268341,0 1.37817971,-0.0749 2.07133881,-0.0501 0.7683352,0.0274 1.5358877,0.0501 2.3051998,0.0501 0.3786317,0 0.7572634,0 1.1358954,0 0.1881648,0 0.3801975,-0.011 0.5679477,0 0.2784477,0.0164 0.5558771,0.009 0.8352173,0.0167 0.3675796,0.0105 0.7347022,0.0432 1.1024868,0.0501 1.1517005,0.0217 2.3058446,0 3.4577996,0 1.124759,0 2.249518,0 3.374277,0 0.160532,0 0.324211,0.009 0.484426,0 0.201246,-0.0118 0.399657,-0.0501 0.601357,-0.0501 0.09002,0 0.195374,0.0148 0.283974,0 0.13192,-0.022 -0.03007,-0.0167 0.100226,-0.0167 0.03341,0 0.06682,0 0.100226,0 0.0167,0 0.06681,5.3e-4 0.05011,0 -0.470427,-0.0143 -0.940875,-0.028 -1.411312,-0.042"
       id="path2738-6-0-9-5-0" />
    <path
       style="fill:none;stroke:#000000;stroke-width:0.264583px;stroke-linecap:butt;stroke-linejoin:miter;stroke-opacity:1"
       d="M 3.1973509e-6,32.543808 C 0.17107837,32.618408 0.3689583,32.585808 0.55124659,32.585808 c 0.69268341,0 1.37817971,-0.0749 2.07133881,-0.0501 0.7683352,0.0274 1.5358877,0.0501 2.3051998,0.0501 0.3786317,0 0.7572634,0 1.1358954,0 0.1881648,0 0.3801975,-0.011 0.5679477,0 0.2784477,0.0164 0.5558771,0.009 0.8352173,0.0167 0.3675796,0.0105 0.7347022,0.0432 1.1024868,0.0501 1.1517005,0.0217 2.3058446,0 3.4577996,0 1.124759,0 2.249518,0 3.374277,0 0.160532,0 0.324211,0.009 0.484426,0 0.201246,-0.0118 0.399657,-0.0501 0.601357,-0.0501 0.09002,0 0.195374,0.0148 0.283974,0 0.13192,-0.022 -0.03007,-0.0167 0.100226,-0.0167 0.03341,0 0.06682,0 0.100226,0 0.0167,0 0.06681,5.3e-4 0.05011,0 -0.470427,-0.0143 -0.940875,-0.028 -1.411312,-0.042"
       id="path2738-2-5-4-7-0" />
    <path
       style="fill:none;stroke:#000000;stroke-width:0.264583px;stroke-linecap:butt;stroke-linejoin:miter;stroke-opacity:1"
       d="M 3.1973509e-6,49.477141 C 0.17107837,49.551741 0.3689583,49.519141 0.55124659,49.519141 c 0.69268341,0 1.37817971,-0.0749 2.07133881,-0.0501 0.7683352,0.0274 1.5358877,0.0501 2.3051998,0.0501 0.3786317,0 0.7572634,0 1.1358954,0 0.1881648,0 0.3801975,-0.011 0.5679477,0 0.2784477,0.0164 0.5558771,0.009 0.8352173,0.0167 0.3675796,0.0105 0.7347022,0.0432 1.1024868,0.0501 1.1517005,0.0217 2.3058446,0 3.4577996,0 1.124759,0 2.249518,0 3.374277,0 0.160532,0 0.324211,0.009 0.484426,0 0.201246,-0.0118 0.399657,-0.0501 0.601357,-0.0501 0.09002,0 0.195374,0.0148 0.283974,0 0.13192,-0.022 -0.03007,-0.0167 0.100226,-0.0167 0.03341,0 0.06682,0 0.100226,0 0.0167,0 0.06681,5.3e-4 0.05011,0 -0.470427,-0.0143 -0.940875,-0.028 -1.411312,-0.042"
       id="path2738-5-9-8-3-1-4" />
    <path
       style="fill:none;stroke:#000000;stroke-width:0.264583px;stroke-linecap:butt;stroke-linejoin:miter;stroke-opacity:1"
       d="M 3.1973509e-6,66.410474 C 0.17107837,66.485074 0.3689583,66.452474 0.55124659,66.452474 c 0.69268341,0 1.37817971,-0.0749 2.07133881,-0.0501 0.7683352,0.0274 1.5358877,0.0501 2.3051998,0.0501 0.3786317,0 0.7572634,0 1.1358954,0 0.1881648,0 0.3801975,-0.011 0.5679477,0 0.2784477,0.0164 0.5558771,0.009 0.8352173,0.0167 0.3675796,0.0105 0.7347022,0.0432 1.1024868,0.0501 1.1517005,0.0217 2.3058446,0 3.4577996,0 1.124759,0 2.249518,0 3.374277,0 0.160532,0 0.324211,0.009 0.484426,0 0.201246,-0.0118 0.399657,-0.0501 0.601357,-0.0501 0.09002,0 0.195374,0.0148 0.283974,0 0.13192,-0.022 -0.03007,-0.0167 0.100226,-0.0167 0.03341,0 0.06682,0 0.100226,0 0.0167,0 0.06681,5.3e-4 0.05011,0 -0.470427,-0.0143 -0.940875,-0.028 -1.411312,-0.042"
       id="path2738-1-4-1-0-5-9" />
    <path
       style="fill:none;stroke:#000000;stroke-width:0.264583px;stroke-linecap:butt;stroke-linejoin:miter;stroke-opacity:1"
       d="M 3.1973509e-6,83.343807 C 0.17107837,83.418407 0.3689583,83.385807 0.55124659,83.385807 c 0.69268341,0 1.37817971,-0.0749 2.07133881,-0.0501 0.7683352,0.0274 1.5358877,0.0501 2.3051998,0.0501 0.3786317,0 0.7572634,0 1.1358954,0 0.1881648,0 0.3801975,-0.011 0.5679477,0 0.2784477,0.0164 0.5558771,0.009 0.8352173,0.0167 0.3675796,0.0105 0.7347022,0.0432 1.1024868,0.0501 1.1517005,0.0217 2.3058446,0 3.4577996,0 1.124759,0 2.249518,0 3.374277,0 0.160532,0 0.324211,0.009 0.484426,0 0.201246,-0.0118 0.399657,-0.0501 0.601357,-0.0501 0.09002,0 0.195374,0.0148 0.283974,0 0.13192,-0.022 -0.03007,-0.0167 0.100226,-0.0167 0.03341,0 0.06682,0 0.100226,0 0.0167,0 0.06681,5.3e-4 0.05011,0 -0.470427,-0.0143 -0.940875,-0.028 -1.411312,-0.042"
       id="path2738-6-0-9-5-0-8" />
    <path
       style="fill:none;stroke:#000000;stroke-width:0.264583px;stroke-linecap:butt;stroke-linejoin:miter;stroke-opacity:1"
       d="M 3.1973509e-6,15.610476 C 0.17107837,15.685076 0.3689583,15.652476 0.55124659,15.652476 c 0.69268341,0 1.37817971,-0.0749 2.07133881,-0.0501 0.7683352,0.0274 1.5358877,0.0501 2.3051998,0.0501 0.3786317,0 0.7572634,0 1.1358954,0 0.1881648,0 0.3801975,-0.011 0.5679477,0 0.2784477,0.0164 0.5558771,0.009 0.8352173,0.0167 0.3675796,0.0105 0.7347022,0.0432 1.1024868,0.0501 1.1517005,0.0217 2.3058446,0 3.4577996,0 1.124759,0 2.249518,0 3.374277,0 0.160532,0 0.324211,0.009 0.484426,0 0.201246,-0.0118 0.399657,-0.0501 0.601357,-0.0501 0.09002,0 0.195374,0.0148 0.283974,0 0.13192,-0.022 -0.03007,-0.0167 0.100226,-0.0167 0.03341,0 0.06682,0 0.100226,0 0.0167,0 0.06681,5.3e-4 0.05011,0 -0.470427,-0.0143 -0.940875,-0.028 -1.411312,-0.042"
       id="path2738-2-5-4-7-0-4" />
    <path
       style="fill:none;stroke:#000000;stroke-width:0.264583px;stroke-linecap:butt;stroke-linejoin:miter;stroke-opacity:1"
       d="M 3.1973509e-6,32.543809 C 0.17107837,32.618409 0.3689583,32.585809 0.55124659,32.585809 c 0.69268341,0 1.37817971,-0.0749 2.07133881,-0.0501 0.7683352,0.0274 1.5358877,0.0501 2.3051998,0.0501 0.3786317,0 0.7572634,0 1.1358954,0 0.1881648,0 0.3801975,-0.011 0.5679477,0 0.2784477,0.0164 0.5558771,0.009 0.8352173,0.0167 0.3675796,0.0105 0.7347022,0.0432 1.1024868,0.0501 1.1517005,0.0217 2.3058446,0 3.4577996,0 1.124759,0 2.249518,0 3.374277,0 0.160532,0 0.324211,0.009 0.484426,0 0.201246,-0.0118 0.399657,-0.0501 0.601357,-0.0501 0.09002,0 0.195374,0.0148 0.283974,0 0.13192,-0.022 -0.03007,-0.0167 0.100226,-0.0167 0.03341,0 0.06682,0 0.100226,0 0.0167,0 0.06681,5.29e-4 0.05011,0 -0.470427,-0.0143 -0.940875,-0.028 -1.411312,-0.042"
       id="path2738-5-9-8-3-1-4-0" />
    <path
       style="fill:none;stroke:#000000;stroke-width:0.264583px;stroke-linecap:butt;stroke-linejoin:miter;stroke-opacity:1"
       d="M 3.1973509e-6,49.477141 C 0.17107837,49.551741 0.3689583,49.519141 0.55124659,49.519141 c 0.69268341,0 1.37817971,-0.0749 2.07133881,-0.0501 0.7683352,0.0274 1.5358877,0.0501 2.3051998,0.0501 0.3786317,0 0.7572634,0 1.1358954,0 0.1881648,0 0.3801975,-0.01101 0.5679477,0 0.2784477,0.0164 0.5558771,0.009 0.8352173,0.01669 0.3675796,0.0105 0.7347022,0.0432 1.1024868,0.0501 1.1517005,0.0217 2.3058446,0 3.4577996,0 1.124759,0 2.249518,0 3.374277,0 0.160532,0 0.324211,0.009 0.484426,0 0.201246,-0.0118 0.399657,-0.0501 0.601357,-0.0501 0.09002,0 0.195374,0.01479 0.283974,0 0.13192,-0.02199 -0.03007,-0.01669 0.100226,-0.01669 0.03341,0 0.06682,0 0.100226,0 0.0167,0 0.06681,5.29e-4 0.05011,0 -0.470427,-0.01429 -0.940875,-0.028 -1.411312,-0.042"
       id="path2738-1-4-1-0-5-9-7" />
    <path
       style="fill:none;stroke:#000000;stroke-width:0.264583px;stroke-linecap:butt;stroke-linejoin:miter;stroke-opacity:1"
       d="M 3.1973509e-6,66.410474 C 0.17107837,66.485074 0.3689583,66.452474 0.55124659,66.452474 c 0.69268341,0 1.37817971,-0.0749 2.07133881,-0.0501 0.7683352,0.0274 1.5358877,0.0501 2.3051998,0.0501 0.3786317,0 0.7572634,0 1.1358954,0 0.1881648,0 0.3801975,-0.01101 0.5679477,0 0.2784477,0.01641 0.5558771,0.009 0.8352173,0.0167 0.3675796,0.0105 0.7347022,0.0432 1.1024868,0.0501 1.1517005,0.0217 2.3058446,0 3.4577996,0 1.124759,0 2.249518,0 3.374277,0 0.160532,0 0.324211,0.009 0.484426,0 0.201246,-0.0118 0.399657,-0.0501 0.601357,-0.0501 0.09002,0 0.195374,0.01479 0.283974,0 0.13192,-0.02199 -0.03007,-0.0167 0.100226,-0.0167 0.03341,0 0.06682,0 0.100226,0 0.0167,0 0.06681,5.3e-4 0.05011,0 -0.470427,-0.01429 -0.940875,-0.028 -1.411312,-0.042"
       id="path2738-6-0-9-5-0-8-1" />
  </g>
</svg>
