<?xml version="1.0" encoding="UTF-8" standalone="no"?>
<svg
   xmlns:dc="http://purl.org/dc/elements/1.1/"
   xmlns:cc="http://creativecommons.org/ns#"
   xmlns:rdf="http://www.w3.org/1999/02/22-rdf-syntax-ns#"
   xmlns:svg="http://www.w3.org/2000/svg"
   xmlns="http://www.w3.org/2000/svg"
   xmlns:sodipodi="http://sodipodi.sourceforge.net/DTD/sodipodi-0.dtd"
   xmlns:inkscape="http://www.inkscape.org/namespaces/inkscape"
   width="64"
   height="64"
   viewBox="0 0 16.933333 16.933333"
   version="1.1"
   id="svg934"
   inkscape:version="1.0.1 (3bc2e813f5, 2020-09-07)"
   sodipodi:docname="starField.svg">
  <defs
     id="defs928" />
  <sodipodi:namedview
     id="base"
     pagecolor="#ffffff"
     bordercolor="#666666"
     borderopacity="1.0"
     inkscape:pageopacity="0.0"
     inkscape:pageshadow="2"
     inkscape:zoom="5.6"
     inkscape:cx="-4.206388"
     inkscape:cy="66.28531"
     inkscape:document-units="mm"
     inkscape:current-layer="layer1"
     inkscape:document-rotation="0"
     showgrid="true"
     units="px"
     width="64px"
     inkscape:window-width="1920"
     inkscape:window-height="1017"
     inkscape:window-x="-8"
     inkscape:window-y="-8"
     inkscape:window-maximized="1"
     inkscape:snap-global="false">
    <inkscape:grid
       type="xygrid"
       id="grid1497"
       enabled="true"
       visible="true"
       color="#ff2dff"
       opacity="0.09019608"
       empcolor="#3f3f73"
       empopacity="0.09019608"
       spacingy="4.2333332"
       spacingx="4.2333332"
       originx="-1.3229166" />
    <inkscape:grid
       type="xygrid"
       id="grid1499"
       spacingy="16.933333"
       originx="0"
       dotted="false"
       snapvisiblegridlinesonly="true"
       empspacing="1"
       originy="16.933333"
       spacingx="529.16664" />
  </sodipodi:namedview>
  <metadata
     id="metadata931">
    <rdf:RDF>
      <cc:Work
         rdf:about="">
        <dc:format>image/svg+xml</dc:format>
        <dc:type
           rdf:resource="http://purl.org/dc/dcmitype/StillImage" />
        <dc:title></dc:title>
      </cc:Work>
    </rdf:RDF>
  </metadata>
  <g
     inkscape:label="Layer 1"
     inkscape:groupmode="layer"
     id="layer1">
    <path
       sodipodi:type="star"
       style="fill:#8d003a;fill-opacity:1;stroke-width:0.196867;stop-color:#000000"
       id="path2309"
       sodipodi:sides="5"
       sodipodi:cx="1.4548761"
       sodipodi:cy="6.4392657"
       sodipodi:r1="7.0318341"
       sodipodi:r2="3.5159175"
       sodipodi:arg1="3.1415927"
       sodipodi:arg2="3.7699112"
       inkscape:flatsided="false"
       inkscape:rounded="0"
       inkscape:randomized="0"
       d="M -5.5769581,6.4392654 -1.3895609,4.3726612 -0.71807987,-0.24840604 2.5413544,3.0954295 7.1437496,2.3060576 4.9707936,6.4392658 7.1437492,10.572474 2.5413543,9.783102 -0.71808049,13.126937 -1.389561,8.5058702 Z"
       inkscape:transform-center-x="0.29438761"
       transform="matrix(0.43841571,0,0,0.43067394,3.1879878,1.2711211)" />
    <path
       sodipodi:type="star"
       style="fill:#8d0000;fill-opacity:1;stroke-width:0.196867;stop-color:#000000"
       id="path2309-6"
       sodipodi:sides="5"
       sodipodi:cx="1.4548761"
       sodipodi:cy="6.4392657"
       sodipodi:r1="7.0318341"
       sodipodi:r2="3.5159175"
       sodipodi:arg1="3.1415927"
       sodipodi:arg2="3.7699112"
       inkscape:flatsided="false"
       inkscape:rounded="0"
       inkscape:randomized="0"
       d="M -5.5769581,6.4392654 -1.3895609,4.3726612 -0.71807987,-0.24840604 2.5413544,3.0954295 7.1437496,2.3060576 4.9707936,6.4392658 7.1437492,10.572474 2.5413543,9.783102 -0.71808049,13.126937 -1.389561,8.5058702 Z"
       inkscape:transform-center-x="0.29438761"
       transform="matrix(0.43841572,0,0,0.43067393,11.04308,10.314201)" />
    <path
       sodipodi:type="star"
       style="fill:#006e8d;fill-opacity:1;stroke-width:0.196867;stop-color:#000000"
       id="path2309-6-8"
       sodipodi:sides="5"
       sodipodi:cx="1.4548761"
       sodipodi:cy="6.4392657"
       sodipodi:r1="7.0318341"
       sodipodi:r2="3.5159175"
       sodipodi:arg1="3.1415927"
       sodipodi:arg2="3.7699112"
       inkscape:flatsided="false"
       inkscape:rounded="0"
       inkscape:randomized="0"
       d="M -5.5769581,6.4392654 -1.3895609,4.3726612 -0.71807987,-0.24840604 2.5413544,3.0954295 7.1437496,2.3060576 4.9707936,6.4392658 7.1437492,10.572474 2.5413543,9.783102 -0.71808049,13.126937 -1.389561,8.5058702 Z"
       inkscape:transform-center-x="0.29438761"
       transform="matrix(0.43841572,0,0,0.43067393,4.1922617,24.346567)" />
    <path
       sodipodi:type="star"
       style="fill:#8d0000;fill-opacity:1;stroke-width:0.196867;stop-color:#000000"
       id="path2309-6-8-5"
       sodipodi:sides="5"
       sodipodi:cx="1.4548761"
       sodipodi:cy="6.4392657"
       sodipodi:r1="7.0318341"
       sodipodi:r2="3.5159175"
       sodipodi:arg1="3.1415927"
       sodipodi:arg2="3.7699112"
       inkscape:flatsided="false"
       inkscape:rounded="0"
       inkscape:randomized="0"
       d="M -5.5769581,6.4392654 -1.3895609,4.3726612 -0.71807987,-0.24840604 2.5413544,3.0954295 7.1437496,2.3060576 4.9707936,6.4392658 7.1437492,10.572474 2.5413543,9.783102 -0.71808049,13.126937 -1.389561,8.5058702 Z"
       inkscape:transform-center-x="0.29438761"
       transform="matrix(0.43841572,0,0,0.43067393,13.641666,35.496866)" />
    <path
       sodipodi:type="star"
       style="fill:#8d0066;fill-opacity:1;stroke-width:0.196867;stop-color:#000000"
       id="path2309-6-8-5-5"
       sodipodi:sides="5"
       sodipodi:cx="1.4548761"
       sodipodi:cy="6.4392657"
       sodipodi:r1="7.0318341"
       sodipodi:r2="3.5159175"
       sodipodi:arg1="3.1415927"
       sodipodi:arg2="3.7699112"
       inkscape:flatsided="false"
       inkscape:rounded="0"
       inkscape:randomized="0"
       d="M -5.5769581,6.4392654 -1.3895609,4.3726612 -0.71807987,-0.24840604 2.5413544,3.0954295 7.1437496,2.3060576 4.9707936,6.4392658 7.1437492,10.572474 2.5413543,9.783102 -0.71808049,13.126937 -1.389561,8.5058702 Z"
       inkscape:transform-center-x="0.29438761"
       transform="matrix(0.43841572,0,0,0.43067393,3.7197914,49.765467)" />
    <path
       sodipodi:type="star"
       style="fill:#00388d;fill-opacity:1;stroke-width:0.196867;stop-color:#000000"
       id="path2309-6-8-5-2"
       sodipodi:sides="5"
       sodipodi:cx="1.4548761"
       sodipodi:cy="6.4392657"
       sodipodi:r1="7.0318341"
       sodipodi:r2="3.5159175"
       sodipodi:arg1="3.1415927"
       sodipodi:arg2="3.7699112"
       inkscape:flatsided="false"
       inkscape:rounded="0"
       inkscape:randomized="0"
       d="M -5.5769581,6.4392654 -1.3895609,4.3726612 -0.71807987,-0.24840604 2.5413544,3.0954295 7.1437496,2.3060576 4.9707936,6.4392658 7.1437492,10.572474 2.5413543,9.783102 -0.71808049,13.126937 -1.389561,8.5058702 Z"
       inkscape:transform-center-x="0.29438761"
       transform="matrix(0.43841572,0,0,0.43067393,13.074702,58.836895)" />
    <path
       sodipodi:type="star"
       style="fill:#8d7700;fill-opacity:1;stroke-width:0.196867;stop-color:#000000"
       id="path2309-6-8-5-4"
       sodipodi:sides="5"
       sodipodi:cx="1.4548761"
       sodipodi:cy="6.4392657"
       sodipodi:r1="7.0318341"
       sodipodi:r2="3.5159175"
       sodipodi:arg1="3.1415927"
       sodipodi:arg2="3.7699112"
       inkscape:flatsided="false"
       inkscape:rounded="0"
       inkscape:randomized="0"
       d="M -5.5769581,6.4392654 -1.3895609,4.3726612 -0.71807987,-0.24840604 2.5413544,3.0954295 7.1437496,2.3060576 4.9707936,6.4392658 7.1437492,10.572474 2.5413543,9.783102 -0.71808049,13.126937 -1.389561,8.5058702 Z"
       inkscape:transform-center-x="0.29438761"
       transform="matrix(0.43841572,0,0,0.43067393,2.6803562,71.026628)" />
    <path
       sodipodi:type="star"
       style="fill:#7a008d;fill-opacity:1;stroke-width:0.196867;stop-color:#000000"
       id="path2309-6-8-5-20"
       sodipodi:sides="5"
       sodipodi:cx="1.4548761"
       sodipodi:cy="6.4392657"
       sodipodi:r1="7.0318341"
       sodipodi:r2="3.5159175"
       sodipodi:arg1="3.1415927"
       sodipodi:arg2="3.7699112"
       inkscape:flatsided="false"
       inkscape:rounded="0"
       inkscape:randomized="0"
       d="M -5.5769581,6.4392654 -1.3895609,4.3726612 -0.71807987,-0.24840604 2.5413544,3.0954295 7.1437496,2.3060576 4.9707936,6.4392658 7.1437492,10.572474 2.5413543,9.783102 -0.71808049,13.126937 -1.389561,8.5058702 Z"
       inkscape:transform-center-x="0.29438761"
       transform="matrix(0.43841572,0,0,0.43067393,13.263689,83.783324)" />
    <path
       sodipodi:type="star"
       style="fill:#8d6a00;fill-opacity:1;stroke-width:0.196867;stop-color:#000000"
       id="path2309-6-8-5-52"
       sodipodi:sides="5"
       sodipodi:cx="1.4548761"
       sodipodi:cy="6.4392657"
       sodipodi:r1="7.0318341"
       sodipodi:r2="3.5159175"
       sodipodi:arg1="3.1415927"
       sodipodi:arg2="3.7699112"
       inkscape:flatsided="false"
       inkscape:rounded="0"
       inkscape:randomized="0"
       d="M -5.5769581,6.4392654 -1.3895609,4.3726612 -0.71807987,-0.24840604 2.5413544,3.0954295 7.1437496,2.3060576 4.9707936,6.4392658 7.1437492,10.572474 2.5413543,9.783102 -0.71808049,13.126937 -1.389561,8.5058702 Z"
       inkscape:transform-center-x="0.3392796"
       transform="matrix(0.505271,0,0,0.49634864,7.210944,98.068239)" />
    <path
       sodipodi:type="star"
       style="fill:#8d0000;fill-opacity:1;stroke-width:0.196867;stop-color:#000000"
       id="path2309-6-8-5-25"
       sodipodi:sides="5"
       sodipodi:cx="1.4548761"
       sodipodi:cy="6.4392657"
       sodipodi:r1="7.0318341"
       sodipodi:r2="3.5159175"
       sodipodi:arg1="3.1415927"
       sodipodi:arg2="3.7699112"
       inkscape:flatsided="false"
       inkscape:rounded="0"
       inkscape:randomized="0"
       d="M -5.5769581,6.4392654 -1.3895609,4.3726612 -0.71807987,-0.24840604 2.5413544,3.0954295 7.1437496,2.3060576 4.9707936,6.4392658 7.1437492,10.572474 2.5413543,9.783102 -0.71808049,13.126937 -1.389561,8.5058702 Z"
       inkscape:transform-center-x="-0.13155231"
       transform="matrix(0.29485835,-0.16232807,0.15946159,0.28965158,1.9651887,123.96552)"
       inkscape:transform-center-y="0.084590021" />
    <path
       sodipodi:type="star"
       style="fill:#6f8d00;fill-opacity:1;stroke-width:0.196867;stop-color:#000000"
       id="path2309-6-8-5-8"
       sodipodi:sides="5"
       sodipodi:cx="1.4548761"
       sodipodi:cy="6.4392657"
       sodipodi:r1="7.0318341"
       sodipodi:r2="3.5159175"
       sodipodi:arg1="3.1415927"
       sodipodi:arg2="3.7699112"
       inkscape:flatsided="false"
       inkscape:rounded="0"
       inkscape:randomized="0"
       d="M -5.5769581,6.4392654 -1.3895609,4.3726612 -0.71807987,-0.24840604 2.5413544,3.0954295 7.1437496,2.3060576 4.9707936,6.4392658 7.1437492,10.572474 2.5413543,9.783102 -0.71808049,13.126937 -1.389561,8.5058702 Z"
       inkscape:transform-center-x="0.25947187"
       transform="matrix(0.38641717,0,0,0.3795936,11.367298,113.63075)"
       inkscape:transform-center-y="-1.3434629e-06" />
    <path
       sodipodi:type="star"
       style="fill:#698d00;fill-opacity:1;stroke-width:0.196867;stop-color:#000000"
       id="path2309-6-8-5-1"
       sodipodi:sides="5"
       sodipodi:cx="1.4548761"
       sodipodi:cy="6.4392657"
       sodipodi:r1="7.0318341"
       sodipodi:r2="3.5159175"
       sodipodi:arg1="3.1415927"
       sodipodi:arg2="3.7699112"
       inkscape:flatsided="false"
       inkscape:rounded="0"
       inkscape:randomized="0"
       d="M -5.5769581,6.4392654 -1.3895609,4.3726612 -0.71807987,-0.24840604 2.5413544,3.0954295 7.1437496,2.3060576 4.9707936,6.4392658 7.1437492,10.572474 2.5413543,9.783102 -0.71808049,13.126937 -1.389561,8.5058702 Z"
       inkscape:transform-center-x="0.23951916"
       transform="matrix(0.35670372,0,0,0.35040484,12.052033,141.49924)" />
    <path
       sodipodi:type="star"
       style="fill:#008d31;fill-opacity:1;stroke-width:0.196867;stop-color:#000000"
       id="path2309-6-8-5-85"
       sodipodi:sides="5"
       sodipodi:cx="1.4548761"
       sodipodi:cy="6.4392657"
       sodipodi:r1="7.0318341"
       sodipodi:r2="3.5159175"
       sodipodi:arg1="3.1415927"
       sodipodi:arg2="3.7699112"
       inkscape:flatsided="false"
       inkscape:rounded="0"
       inkscape:randomized="0"
       d="M -5.5769581,6.4392654 -1.3895609,4.3726612 -0.71807987,-0.24840604 2.5413544,3.0954295 7.1437496,2.3060576 4.9707936,6.4392658 7.1437492,10.572474 2.5413543,9.783102 -0.71808049,13.126937 -1.389561,8.5058702 Z"
       inkscape:transform-center-x="0.29438761"
       transform="matrix(0.43841572,0,0,0.43067393,3.3418144,155.59881)" />
    <path
       sodipodi:type="star"
       style="fill:#00508d;fill-opacity:1;stroke-width:0.196867;stop-color:#000000"
       id="path2309-6-8-5-42"
       sodipodi:sides="5"
       sodipodi:cx="1.4548761"
       sodipodi:cy="6.4392657"
       sodipodi:r1="7.0318341"
       sodipodi:r2="3.5159175"
       sodipodi:arg1="3.1415927"
       sodipodi:arg2="3.7699112"
       inkscape:flatsided="false"
       inkscape:rounded="0"
       inkscape:randomized="0"
       d="M -5.5769581,6.4392654 -1.3895609,4.3726612 -0.71807987,-0.24840604 2.5413544,3.0954295 7.1437496,2.3060576 4.9707936,6.4392658 7.1437492,10.572474 2.5413543,9.783102 -0.71808049,13.126937 -1.389561,8.5058702 Z"
       inkscape:transform-center-x="0.33302081"
       transform="matrix(0.49595005,0,0,0.48719228,9.4268182,169.97593)" />
    <path
       sodipodi:type="star"
       style="fill:#8d6000;fill-opacity:1;stroke-width:0.196867;stop-color:#000000"
       id="path2309-6-8-5-423"
       sodipodi:sides="5"
       sodipodi:cx="1.4548761"
       sodipodi:cy="6.4392657"
       sodipodi:r1="7.0318341"
       sodipodi:r2="3.5159175"
       sodipodi:arg1="3.1415927"
       sodipodi:arg2="3.7699112"
       inkscape:flatsided="false"
       inkscape:rounded="0"
       inkscape:randomized="0"
       d="M -5.5769581,6.4392654 -1.3895609,4.3726612 -0.71807987,-0.24840604 2.5413544,3.0954295 7.1437496,2.3060576 4.9707936,6.4392658 7.1437492,10.572474 2.5413543,9.783102 -0.71808049,13.126937 -1.389561,8.5058702 Z"
       inkscape:transform-center-x="0.29438761"
       transform="matrix(0.43841572,0,0,0.43067393,2.8693446,185.8369)" />
    <path
       sodipodi:type="star"
       style="fill:#008d3b;fill-opacity:1;stroke-width:0.196867;stop-color:#000000"
       id="path2309-6-8-5-29"
       sodipodi:sides="5"
       sodipodi:cx="1.4548761"
       sodipodi:cy="6.4392657"
       sodipodi:r1="7.0318341"
       sodipodi:r2="3.5159175"
       sodipodi:arg1="3.1415927"
       sodipodi:arg2="3.7699112"
       inkscape:flatsided="false"
       inkscape:rounded="0"
       inkscape:randomized="0"
       d="M -5.5769581,6.4392654 -1.3895609,4.3726612 -0.71807987,-0.24840604 2.5413544,3.0954295 7.1437496,2.3060576 4.9707936,6.4392658 7.1437492,10.572474 2.5413543,9.783102 -0.71808049,13.126937 -1.389561,8.5058702 Z"
       inkscape:transform-center-x="-0.20524714"
       transform="matrix(0.37599643,0.22546625,-0.22148484,0.36935687,13.741267,198.28243)"
       inkscape:transform-center-y="-0.075395265" />
    <path
       sodipodi:type="star"
       style="fill:#00508d;fill-opacity:1;stroke-width:0.196867;stop-color:#000000"
       id="path2309-6-8-5-3"
       sodipodi:sides="5"
       sodipodi:cx="1.4548761"
       sodipodi:cy="6.4392657"
       sodipodi:r1="7.0318341"
       sodipodi:r2="3.5159175"
       sodipodi:arg1="3.1415927"
       sodipodi:arg2="3.7699112"
       inkscape:flatsided="false"
       inkscape:rounded="0"
       inkscape:randomized="0"
       d="M -5.5769581,6.4392654 -1.3895609,4.3726612 -0.71807987,-0.24840604 2.5413544,3.0954295 7.1437496,2.3060576 4.9707936,6.4392658 7.1437492,10.572474 2.5413543,9.783102 -0.71808049,13.126937 -1.389561,8.5058702 Z"
       inkscape:transform-center-x="-0.059060456"
       transform="matrix(0.27645075,-0.34026949,0.33426082,0.27156902,1.9920242,219.29545)"
       inkscape:transform-center-y="-0.25132175" />
    <path
       sodipodi:type="star"
       style="fill:#47008d;fill-opacity:1;stroke-width:0.196867;stop-color:#000000"
       id="path2309-6-8-5-39"
       sodipodi:sides="5"
       sodipodi:cx="1.4548761"
       sodipodi:cy="6.4392657"
       sodipodi:r1="7.0318341"
       sodipodi:r2="3.5159175"
       sodipodi:arg1="3.1415927"
       sodipodi:arg2="3.7699112"
       inkscape:flatsided="false"
       inkscape:rounded="0"
       inkscape:randomized="0"
       d="M -5.5769581,6.4392654 -1.3895609,4.3726612 -0.71807987,-0.24840604 2.5413544,3.0954295 7.1437496,2.3060576 4.9707936,6.4392658 7.1437492,10.572474 2.5413543,9.783102 -0.71808049,13.126937 -1.389561,8.5058702 Z"
       inkscape:transform-center-x="0.29438761"
       transform="matrix(0.43841572,0,0,0.43067393,12.696725,227.50877)" />
    <path
       sodipodi:type="star"
       style="fill:#8d0000;fill-opacity:1;stroke-width:0.196867;stop-color:#000000"
       id="path2309-6-8-5-27"
       sodipodi:sides="5"
       sodipodi:cx="1.4548761"
       sodipodi:cy="6.4392657"
       sodipodi:r1="7.0318341"
       sodipodi:r2="3.5159175"
       sodipodi:arg1="3.1415927"
       sodipodi:arg2="3.7699112"
       inkscape:flatsided="false"
       inkscape:rounded="0"
       inkscape:randomized="0"
       d="M -5.5769581,6.4392654 -1.3895609,4.3726612 -0.71807987,-0.24840604 2.5413544,3.0954295 7.1437496,2.3060576 4.9707936,6.4392658 7.1437492,10.572474 2.5413543,9.783102 -0.71808049,13.126937 -1.389561,8.5058702 Z"
       inkscape:transform-center-x="-0.1499477"
       transform="matrix(0.38885731,0.20248046,-0.19890494,0.38199065,4.9781998,243.78064)"
       inkscape:transform-center-y="-0.1319388" />
    <path
       sodipodi:type="star"
       style="fill:#8d8800;fill-opacity:1;stroke-width:0.196867;stop-color:#000000"
       id="path2309-6-8-5-0"
       sodipodi:sides="5"
       sodipodi:cx="1.4548761"
       sodipodi:cy="6.4392657"
       sodipodi:r1="7.0318341"
       sodipodi:r2="3.5159175"
       sodipodi:arg1="3.1415927"
       sodipodi:arg2="3.7699112"
       inkscape:flatsided="false"
       inkscape:rounded="0"
       inkscape:randomized="0"
       d="M -5.5769581,6.4392654 -1.3895609,4.3726612 -0.71807987,-0.24840604 2.5413544,3.0954295 7.1437496,2.3060576 4.9707936,6.4392658 7.1437492,10.572474 2.5413543,9.783102 -0.71808049,13.126937 -1.389561,8.5058702 Z"
       inkscape:transform-center-x="0.2098952"
       transform="matrix(0.16924919,0.4044293,-0.39728766,0.16626049,14.796124,260.373)"
       inkscape:transform-center-y="0.07202438" />
    <path
       sodipodi:type="star"
       style="fill:#8d0000;fill-opacity:1;stroke-width:0.196867;stop-color:#000000"
       id="path2309-6-8-5-7"
       sodipodi:sides="5"
       sodipodi:cx="1.4548761"
       sodipodi:cy="6.4392657"
       sodipodi:r1="7.0318341"
       sodipodi:r2="3.5159175"
       sodipodi:arg1="3.1415927"
       sodipodi:arg2="3.7699112"
       inkscape:flatsided="false"
       inkscape:rounded="0"
       inkscape:randomized="0"
       d="M -5.5769581,6.4392654 -1.3895609,4.3726612 -0.71807987,-0.24840604 2.5413544,3.0954295 7.1437496,2.3060576 4.9707936,6.4392658 7.1437492,10.572474 2.5413543,9.783102 -0.71808049,13.126937 -1.389561,8.5058702 Z"
       inkscape:transform-center-x="-0.046075287"
       transform="matrix(0.40896814,0.15796647,-0.15517701,0.40174635,5.6123061,277.16909)"
       inkscape:transform-center-y="-0.23542529" />
    <path
       sodipodi:type="star"
       style="fill:#8d0000;fill-opacity:1;stroke-width:0.196867;stop-color:#000000"
       id="path2309-6-8-5-35"
       sodipodi:sides="5"
       sodipodi:cx="1.4548761"
       sodipodi:cy="6.4392657"
       sodipodi:r1="7.0318341"
       sodipodi:r2="3.5159175"
       sodipodi:arg1="3.1415927"
       sodipodi:arg2="3.7699112"
       inkscape:flatsided="false"
       inkscape:rounded="0"
       inkscape:randomized="0"
       d="M -5.5769581,6.4392654 -1.3895609,4.3726612 -0.71807987,-0.24840604 2.5413544,3.0954295 7.1437496,2.3060576 4.9707936,6.4392658 7.1437492,10.572474 2.5413543,9.783102 -0.71808049,13.126937 -1.389561,8.5058702 Z"
       inkscape:transform-center-x="0.29438761"
       transform="matrix(0.43841572,0,0,0.43067393,11.846279,290.5363)" />
    <path
       sodipodi:type="star"
       style="fill:#8d7e00;fill-opacity:1;stroke-width:0.196867;stop-color:#000000"
       id="path2309-6-8-5-206"
       sodipodi:sides="5"
       sodipodi:cx="1.4548761"
       sodipodi:cy="6.4392657"
       sodipodi:r1="7.0318341"
       sodipodi:r2="3.5159175"
       sodipodi:arg1="3.1415927"
       sodipodi:arg2="3.7699112"
       inkscape:flatsided="false"
       inkscape:rounded="0"
       inkscape:randomized="0"
       d="M -5.5769581,6.4392654 -1.3895609,4.3726612 -0.71807987,-0.24840604 2.5413544,3.0954295 7.1437496,2.3060576 4.9707936,6.4392658 7.1437492,10.572474 2.5413543,9.783102 -0.71808049,13.126937 -1.389561,8.5058702 Z"
       inkscape:transform-center-x="0.29438761"
       transform="matrix(0.43841572,0,0,0.43067393,3.6252968,317.27812)" />
    <path
       sodipodi:type="star"
       style="fill:#008d75;fill-opacity:1;stroke-width:0.196867;stop-color:#000000"
       id="path2309-6-8-5-46"
       sodipodi:sides="5"
       sodipodi:cx="1.4548761"
       sodipodi:cy="6.4392657"
       sodipodi:r1="7.0318341"
       sodipodi:r2="3.5159175"
       sodipodi:arg1="3.1415927"
       sodipodi:arg2="3.7699112"
       inkscape:flatsided="false"
       inkscape:rounded="0"
       inkscape:randomized="0"
       d="M -5.5769581,6.4392654 -1.3895609,4.3726612 -0.71807987,-0.24840604 2.5413544,3.0954295 7.1437496,2.3060576 4.9707936,6.4392658 7.1437492,10.572474 2.5413543,9.783102 -0.71808049,13.126937 -1.389561,8.5058702 Z"
       inkscape:transform-center-x="0.29438761"
       transform="matrix(0.43841572,0,0,0.43067393,6.9325884,355.35921)" />
    <path
       sodipodi:type="star"
       style="fill:#80448d;fill-opacity:1;stroke-width:0.196867;stop-color:#000000"
       id="path2309-6-8-5-6"
       sodipodi:sides="5"
       sodipodi:cx="1.4548761"
       sodipodi:cy="6.4392657"
       sodipodi:r1="7.0318341"
       sodipodi:r2="3.5159175"
       sodipodi:arg1="3.1415927"
       sodipodi:arg2="3.7699112"
       inkscape:flatsided="false"
       inkscape:rounded="0"
       inkscape:randomized="0"
       d="M -5.5769581,6.4392654 -1.3895609,4.3726612 -0.71807987,-0.24840604 2.5413544,3.0954295 7.1437496,2.3060576 4.9707936,6.4392658 7.1437492,10.572474 2.5413543,9.783102 -0.71808049,13.126937 -1.389561,8.5058702 Z"
       inkscape:transform-center-x="0.29438761"
       transform="matrix(0.43841572,0,0,0.43067393,3.2473203,381.81756)" />
    <path
       sodipodi:type="star"
       style="fill:#8d4000;fill-opacity:1;stroke-width:0.196867;stop-color:#000000"
       id="path2309-6-8-5-70"
       sodipodi:sides="5"
       sodipodi:cx="1.4548761"
       sodipodi:cy="6.4392657"
       sodipodi:r1="7.0318341"
       sodipodi:r2="3.5159175"
       sodipodi:arg1="3.1415927"
       sodipodi:arg2="3.7699112"
       inkscape:flatsided="false"
       inkscape:rounded="0"
       inkscape:randomized="0"
       d="M -5.5769581,6.4392654 -1.3895609,4.3726612 -0.71807987,-0.24840604 2.5413544,3.0954295 7.1437496,2.3060576 4.9707936,6.4392658 7.1437492,10.572474 2.5413543,9.783102 -0.71808049,13.126937 -1.389561,8.5058702 Z"
       inkscape:transform-center-x="0.29438761"
       transform="matrix(0.43841572,0,0,0.43067393,12.318749,394.29076)" />
    <path
       sodipodi:type="star"
       style="fill:#3c8d00;fill-opacity:1;stroke-width:0.196867;stop-color:#000000"
       id="path2309-6-8-5-9"
       sodipodi:sides="5"
       sodipodi:cx="1.4548761"
       sodipodi:cy="6.4392657"
       sodipodi:r1="7.0318341"
       sodipodi:r2="3.5159175"
       sodipodi:arg1="3.1415927"
       sodipodi:arg2="3.7699112"
       inkscape:flatsided="false"
       inkscape:rounded="0"
       inkscape:randomized="0"
       d="M -5.5769581,6.4392654 -1.3895609,4.3726612 -0.71807987,-0.24840604 2.5413544,3.0954295 7.1437496,2.3060576 4.9707936,6.4392658 7.1437492,10.572474 2.5413543,9.783102 -0.71808049,13.126937 -1.389561,8.5058702 Z"
       inkscape:transform-center-x="0.29438761"
       transform="matrix(0.43841572,0,0,0.43067393,12.980207,368.58837)" />
  </g>
</svg>
